G04 EAGLE Gerber RS-274X export*
G75*
%MOMM*%
%FSLAX34Y34*%
%LPD*%
%IN*%
%IPPOS*%
%AMOC8*
5,1,8,0,0,1.08239X$1,22.5*%
G01*
%ADD10C,0.254000*%


D10*
X-12700Y152400D02*
X507800Y152400D01*
X508308Y977902D01*
X-12700Y977902D01*
X-12700Y152400D01*
X495300Y189787D02*
X495300Y191213D01*
X495220Y192636D01*
X495061Y194052D01*
X494822Y195457D01*
X494505Y196847D01*
X494110Y198216D01*
X493639Y199562D01*
X493094Y200879D01*
X492475Y202163D01*
X491786Y203410D01*
X491028Y204617D01*
X490203Y205779D01*
X489314Y206894D01*
X488364Y207957D01*
X487357Y208964D01*
X486294Y209914D01*
X485179Y210803D01*
X484017Y211628D01*
X482810Y212386D01*
X481563Y213075D01*
X480279Y213694D01*
X478962Y214239D01*
X477616Y214710D01*
X476247Y215105D01*
X474857Y215422D01*
X473452Y215661D01*
X472036Y215820D01*
X470613Y215900D01*
X469187Y215900D01*
X467764Y215820D01*
X466348Y215661D01*
X464943Y215422D01*
X463553Y215105D01*
X462184Y214710D01*
X460838Y214239D01*
X459521Y213694D01*
X458237Y213075D01*
X456990Y212386D01*
X455783Y211628D01*
X454621Y210803D01*
X453506Y209914D01*
X452443Y208964D01*
X451436Y207957D01*
X450486Y206894D01*
X449597Y205779D01*
X448772Y204617D01*
X448014Y203410D01*
X447325Y202163D01*
X446706Y200879D01*
X446161Y199562D01*
X445690Y198216D01*
X445295Y196847D01*
X444978Y195457D01*
X444740Y194052D01*
X444580Y192636D01*
X444500Y191213D01*
X444500Y189787D01*
X444580Y188364D01*
X444740Y186948D01*
X444978Y185543D01*
X445295Y184153D01*
X445690Y182784D01*
X446161Y181438D01*
X446706Y180121D01*
X447325Y178837D01*
X448014Y177590D01*
X448772Y176383D01*
X449597Y175221D01*
X450486Y174106D01*
X451436Y173043D01*
X452443Y172036D01*
X453506Y171086D01*
X454621Y170197D01*
X455783Y169372D01*
X456990Y168614D01*
X458237Y167925D01*
X459521Y167306D01*
X460838Y166761D01*
X462184Y166290D01*
X463553Y165895D01*
X464943Y165578D01*
X466348Y165340D01*
X467764Y165180D01*
X469187Y165100D01*
X470613Y165100D01*
X472036Y165180D01*
X473452Y165340D01*
X474857Y165578D01*
X476247Y165895D01*
X477616Y166290D01*
X478962Y166761D01*
X480279Y167306D01*
X481563Y167925D01*
X482810Y168614D01*
X484017Y169372D01*
X485179Y170197D01*
X486294Y171086D01*
X487357Y172036D01*
X488364Y173043D01*
X489314Y174106D01*
X490203Y175221D01*
X491028Y176383D01*
X491786Y177590D01*
X492475Y178837D01*
X493094Y180121D01*
X493639Y181438D01*
X494110Y182784D01*
X494505Y184153D01*
X494822Y185543D01*
X495061Y186948D01*
X495220Y188364D01*
X495300Y189787D01*
X50800Y939087D02*
X50800Y940513D01*
X50720Y941936D01*
X50561Y943352D01*
X50322Y944757D01*
X50005Y946147D01*
X49610Y947516D01*
X49139Y948862D01*
X48594Y950179D01*
X47975Y951463D01*
X47286Y952710D01*
X46528Y953917D01*
X45703Y955079D01*
X44814Y956194D01*
X43864Y957257D01*
X42857Y958264D01*
X41794Y959214D01*
X40679Y960103D01*
X39517Y960928D01*
X38310Y961686D01*
X37063Y962375D01*
X35779Y962994D01*
X34462Y963539D01*
X33116Y964010D01*
X31747Y964405D01*
X30357Y964722D01*
X28952Y964961D01*
X27536Y965120D01*
X26113Y965200D01*
X24687Y965200D01*
X23264Y965120D01*
X21848Y964961D01*
X20443Y964722D01*
X19053Y964405D01*
X17684Y964010D01*
X16338Y963539D01*
X15021Y962994D01*
X13737Y962375D01*
X12490Y961686D01*
X11283Y960928D01*
X10121Y960103D01*
X9006Y959214D01*
X7943Y958264D01*
X6936Y957257D01*
X5986Y956194D01*
X5097Y955079D01*
X4272Y953917D01*
X3514Y952710D01*
X2825Y951463D01*
X2206Y950179D01*
X1661Y948862D01*
X1190Y947516D01*
X795Y946147D01*
X478Y944757D01*
X240Y943352D01*
X80Y941936D01*
X0Y940513D01*
X0Y939087D01*
X80Y937664D01*
X240Y936248D01*
X478Y934843D01*
X795Y933453D01*
X1190Y932084D01*
X1661Y930738D01*
X2206Y929421D01*
X2825Y928137D01*
X3514Y926890D01*
X4272Y925683D01*
X5097Y924521D01*
X5986Y923406D01*
X6936Y922343D01*
X7943Y921336D01*
X9006Y920386D01*
X10121Y919497D01*
X11283Y918672D01*
X12490Y917914D01*
X13737Y917225D01*
X15021Y916606D01*
X16338Y916061D01*
X17684Y915590D01*
X19053Y915195D01*
X20443Y914878D01*
X21848Y914640D01*
X23264Y914480D01*
X24687Y914400D01*
X26113Y914400D01*
X27536Y914480D01*
X28952Y914640D01*
X30357Y914878D01*
X31747Y915195D01*
X33116Y915590D01*
X34462Y916061D01*
X35779Y916606D01*
X37063Y917225D01*
X38310Y917914D01*
X39517Y918672D01*
X40679Y919497D01*
X41794Y920386D01*
X42857Y921336D01*
X43864Y922343D01*
X44814Y923406D01*
X45703Y924521D01*
X46528Y925683D01*
X47286Y926890D01*
X47975Y928137D01*
X48594Y929421D01*
X49139Y930738D01*
X49610Y932084D01*
X50005Y933453D01*
X50322Y934843D01*
X50561Y936248D01*
X50720Y937664D01*
X50800Y939087D01*
M02*
