G04 EAGLE Gerber RS-274X export*
G75*
%MOMM*%
%FSLAX34Y34*%
%LPD*%
%INBottom Copper*%
%IPPOS*%
%AMOC8*
5,1,8,0,0,1.08239X$1,22.5*%
G01*
%ADD10P,1.429621X8X292.500000*%
%ADD11P,1.429621X8X112.500000*%
%ADD12C,1.524000*%
%ADD13P,1.429621X8X22.500000*%
%ADD14P,1.429621X8X202.500000*%
%ADD15C,1.800000*%
%ADD16C,1.320800*%
%ADD17C,1.320800*%
%ADD18C,0.787400*%
%ADD19C,1.206400*%


D10*
X139700Y876300D03*
X139700Y825500D03*
X368300Y533400D03*
X368300Y482600D03*
D11*
X368300Y622300D03*
X368300Y673100D03*
D10*
X406400Y533400D03*
X406400Y482600D03*
D11*
X406400Y622300D03*
X406400Y673100D03*
D12*
X114300Y919480D02*
X114300Y934720D01*
X139700Y934720D02*
X139700Y919480D01*
X330200Y919480D02*
X330200Y934720D01*
X355600Y934720D02*
X355600Y919480D01*
X381000Y718820D02*
X381000Y703580D01*
X406400Y703580D02*
X406400Y718820D01*
X406400Y452120D02*
X406400Y436880D01*
X381000Y436880D02*
X381000Y452120D01*
D10*
X101600Y901700D03*
X101600Y825500D03*
D13*
X241300Y419100D03*
X317500Y419100D03*
X50800Y546100D03*
X127000Y546100D03*
X50800Y571500D03*
X127000Y571500D03*
X241300Y469900D03*
X317500Y469900D03*
X241300Y381000D03*
X317500Y381000D03*
X241300Y279400D03*
X317500Y279400D03*
D10*
X406400Y863600D03*
X406400Y787400D03*
D11*
X330200Y787400D03*
X330200Y863600D03*
X368300Y787400D03*
X368300Y863600D03*
X482600Y787400D03*
X482600Y863600D03*
D14*
X177800Y698500D03*
X101600Y698500D03*
D13*
X101600Y647700D03*
X177800Y647700D03*
D14*
X177800Y596900D03*
X101600Y596900D03*
D10*
X88900Y254000D03*
X88900Y177800D03*
D13*
X241300Y342900D03*
X317500Y342900D03*
D15*
X61300Y748500D02*
X43300Y748500D01*
X43300Y698500D02*
X61300Y698500D01*
X61300Y648500D02*
X43300Y648500D01*
X43300Y278600D02*
X61300Y278600D01*
X61300Y228600D02*
X43300Y228600D01*
X43300Y178600D02*
X61300Y178600D01*
X61300Y507200D02*
X43300Y507200D01*
X43300Y457200D02*
X61300Y457200D01*
X61300Y407200D02*
X43300Y407200D01*
X118300Y507200D02*
X136300Y507200D01*
X136300Y457200D02*
X118300Y457200D01*
X118300Y407200D02*
X136300Y407200D01*
D16*
X191770Y876300D03*
X191770Y850900D03*
X267970Y850900D03*
X267970Y876300D03*
X191770Y825500D03*
X191770Y800100D03*
X267970Y825500D03*
X267970Y800100D03*
D17*
X260604Y660400D02*
X247396Y660400D01*
X247396Y635000D02*
X260604Y635000D01*
X260604Y508000D02*
X247396Y508000D01*
X323596Y508000D02*
X336804Y508000D01*
X260604Y609600D02*
X247396Y609600D01*
X247396Y584200D02*
X260604Y584200D01*
X260604Y533400D02*
X247396Y533400D01*
X247396Y558800D02*
X260604Y558800D01*
X323596Y533400D02*
X336804Y533400D01*
X336804Y558800D02*
X323596Y558800D01*
X323596Y584200D02*
X336804Y584200D01*
X336804Y609600D02*
X323596Y609600D01*
X323596Y635000D02*
X336804Y635000D01*
X336804Y660400D02*
X323596Y660400D01*
D12*
X203200Y919480D02*
X203200Y934720D01*
X228600Y934720D02*
X228600Y919480D01*
X254000Y919480D02*
X254000Y934720D01*
D18*
X191770Y825500D02*
X139700Y825500D01*
X101600Y825500D01*
X267970Y876300D02*
X292100Y900430D01*
X292100Y901700D01*
D19*
X292100Y901700D03*
D18*
X228854Y901446D02*
X228600Y901700D01*
X228854Y800354D02*
X218376Y789876D01*
D19*
X218376Y774700D03*
D18*
X228854Y800354D02*
X228854Y901446D01*
X228600Y901700D02*
X228600Y927100D01*
D19*
X228600Y901700D03*
D18*
X218376Y789876D02*
X218376Y774700D01*
D19*
X215900Y584200D03*
D18*
X254000Y584200D01*
X209550Y920750D02*
X203200Y927100D01*
X209550Y920750D02*
X209550Y817880D01*
X191770Y800100D01*
X177927Y786257D01*
X288290Y755650D02*
X289560Y754380D01*
D19*
X289560Y754380D03*
X292100Y696151D03*
D18*
X177927Y774700D02*
X177927Y786257D01*
X177927Y774700D02*
X196977Y755650D01*
X288290Y755650D01*
X292100Y696151D02*
X292100Y678720D01*
X291846Y678466D01*
X291846Y642334D01*
X292100Y642080D01*
X292100Y610870D01*
X318770Y584200D01*
X330200Y584200D01*
X330200Y558800D02*
X304800Y558800D01*
X267970Y800100D02*
X254000Y800100D01*
X355600Y927100D02*
X355600Y952500D01*
X346581Y961519D01*
X254000Y961519D01*
X123319Y961519D01*
X114300Y952500D02*
X114300Y927100D01*
X114300Y952500D02*
X123319Y961519D01*
X203200Y609600D02*
X254000Y609600D01*
X203200Y609600D02*
X199771Y606171D01*
X199771Y593471D01*
X182499Y576199D01*
X171101Y576199D01*
X122079Y625221D01*
X76200Y625221D01*
X47879Y596900D01*
X330200Y609600D02*
X342900Y609600D01*
X355600Y596900D02*
X355600Y558800D01*
X330200Y558800D01*
X12573Y596900D02*
X12573Y609600D01*
X254000Y889000D02*
X254000Y927100D01*
X251079Y806330D02*
X254000Y803409D01*
X251079Y806330D02*
X251079Y886079D01*
X254000Y889000D01*
X254000Y803409D02*
X254000Y800100D01*
X254000Y927100D02*
X254000Y961519D01*
X254000Y609600D02*
X264160Y609600D01*
X292100Y581660D02*
X292100Y571500D01*
X292100Y581660D02*
X264160Y609600D01*
X292100Y571500D02*
X304800Y558800D01*
X47879Y596900D02*
X12573Y596900D01*
X50800Y571500D02*
X50800Y546100D01*
X50800Y571500D02*
X47879Y574421D01*
X47879Y596900D01*
X342900Y609600D02*
X355600Y596900D01*
X88900Y254000D02*
X25400Y254000D01*
X12700Y266700D01*
X12700Y609473D02*
X12573Y609600D01*
X12573Y596900D02*
X12700Y596773D01*
X12700Y266700D01*
X114300Y914400D02*
X114300Y927100D01*
X114300Y914400D02*
X101600Y901700D01*
X12573Y812673D01*
X12573Y609600D01*
X191770Y850900D02*
X191770Y876300D01*
X330200Y787400D02*
X330200Y761746D01*
X52300Y748500D02*
X52300Y825349D01*
X77851Y850900D01*
X306324Y737870D02*
X330200Y761746D01*
X306324Y737870D02*
X62930Y737870D01*
X52300Y748500D01*
X77851Y850900D02*
X191770Y850900D01*
X267970Y850900D02*
X279400Y850900D01*
X347980Y883920D02*
X368300Y863600D01*
X347980Y883920D02*
X312420Y883920D01*
X279400Y850900D01*
X457200Y812800D02*
X482600Y787400D01*
X457200Y812800D02*
X419100Y812800D01*
X362934Y762254D02*
X322040Y721360D01*
X482600Y762254D02*
X482600Y787400D01*
X419100Y812800D02*
X368300Y863600D01*
X362934Y762254D02*
X482600Y762254D01*
X153169Y721360D02*
X80309Y648500D01*
X153169Y721360D02*
X322040Y721360D01*
X80309Y648500D02*
X52300Y648500D01*
X267970Y825500D02*
X330200Y825500D01*
X330200Y863600D01*
X330200Y825500D02*
X368300Y787400D01*
X406400Y787400D01*
X317500Y393760D02*
X317500Y381000D01*
X317500Y393760D02*
X292160Y419100D01*
X52300Y407200D02*
X50800Y405700D01*
X50800Y355600D01*
X342900Y482600D02*
X368300Y482600D01*
X342900Y482600D02*
X330200Y495300D01*
X330200Y508000D01*
X368300Y482600D02*
X381000Y482600D01*
X333121Y450730D02*
X323970Y441579D01*
X292160Y428552D02*
X292160Y419100D01*
X292160Y428552D02*
X305188Y441579D01*
X323970Y441579D01*
X76200Y330200D02*
X50800Y355600D01*
X317500Y381000D02*
X333121Y365379D01*
X333121Y336430D01*
X225291Y228600D01*
X152400Y228600D01*
X406400Y863600D02*
X444500Y863600D01*
D19*
X444500Y863600D03*
D18*
X330200Y508000D02*
X333121Y505079D01*
X333121Y450730D01*
X381000Y444500D02*
X381000Y482600D01*
X406400Y508000D01*
X442151Y508000D01*
X444281Y508000D01*
D19*
X442151Y508000D03*
D18*
X101600Y330200D02*
X76200Y330200D01*
D19*
X101600Y330200D03*
X101600Y279400D03*
D18*
X152400Y228600D01*
X330200Y901700D02*
X444500Y901700D01*
X330200Y901700D02*
X330200Y927100D01*
X444500Y901700D02*
X482600Y863600D01*
X127000Y647700D02*
X101600Y647700D01*
X257295Y635000D02*
X276225Y653930D01*
X276225Y679570D01*
X257295Y635000D02*
X254000Y635000D01*
X276225Y679570D02*
X257295Y698500D01*
X177800Y698500D01*
X127000Y647700D01*
X177800Y647700D02*
X177800Y596900D01*
X190500Y660400D02*
X254000Y660400D01*
X190500Y660400D02*
X177800Y647700D01*
X101600Y698500D02*
X52300Y698500D01*
X101600Y596900D02*
X127000Y596900D01*
X190500Y533400D01*
X203200Y558800D02*
X254000Y558800D01*
X190500Y546100D02*
X190500Y533400D01*
X241300Y381000D02*
X215900Y355600D01*
X203200Y342900D01*
X203200Y317500D01*
X189700Y304000D01*
X77700Y304000D01*
X52300Y278600D01*
X190500Y546100D02*
X203200Y558800D01*
X190500Y533400D02*
X190500Y457200D01*
X215900Y431800D01*
X215900Y355600D01*
X52300Y228600D02*
X52300Y178600D01*
X88100Y178600D01*
X88900Y177800D01*
X241300Y342900D02*
X254000Y342900D01*
X266252Y355152D01*
X266252Y394148D01*
X241300Y419100D01*
X256921Y434721D01*
X238005Y495300D02*
X228600Y495300D01*
X215900Y508000D01*
X228600Y533400D02*
X254000Y533400D01*
X228600Y533400D02*
X215900Y520700D01*
X215900Y508000D01*
X238005Y495300D02*
X256921Y476384D01*
X256921Y434721D01*
X279206Y482794D02*
X254000Y508000D01*
X279206Y482794D02*
X279206Y355794D01*
X292100Y342900D02*
X317500Y342900D01*
X292100Y342900D02*
X279206Y355794D01*
X304800Y342900D02*
X317500Y342900D01*
X304800Y342900D02*
X269621Y307721D01*
X234830Y307721D01*
X206509Y279400D01*
X127300Y330500D02*
X127300Y407200D01*
X127300Y330500D02*
X127000Y330200D01*
D19*
X127000Y330200D03*
X127000Y279400D03*
D18*
X206509Y279400D01*
X127300Y507200D02*
X127000Y507500D01*
X127000Y546100D01*
X52300Y509500D02*
X52300Y507200D01*
X101600Y571500D02*
X127000Y571500D01*
X101600Y571500D02*
X88900Y558800D01*
X88900Y533400D01*
X62700Y507200D01*
X52300Y507200D01*
X127300Y457200D02*
X140000Y469900D01*
X165100Y469900D01*
D19*
X165100Y469900D03*
X215900Y469900D03*
D18*
X241300Y469900D01*
X70600Y438900D02*
X52300Y457200D01*
X241300Y279400D02*
X215900Y254000D01*
X165100Y254000D01*
D19*
X165100Y254000D03*
X165100Y330200D03*
D18*
X152400Y432550D02*
X88900Y432550D01*
X152400Y432550D02*
X165100Y419850D01*
X165100Y330200D01*
X76950Y432550D02*
X70600Y438900D01*
X76950Y432550D02*
X88900Y432550D01*
X330200Y660400D02*
X355600Y660400D01*
X368300Y673100D01*
X317500Y419100D02*
X444500Y419100D01*
X368300Y673100D02*
X368300Y698500D01*
X381000Y711200D01*
X368300Y673100D02*
X393700Y647700D01*
X444500Y647700D01*
X457299Y502698D02*
X457200Y502599D01*
X457200Y431800D01*
X457200Y635000D02*
X444500Y647700D01*
X457200Y431800D02*
X444500Y419100D01*
X457200Y502599D02*
X457200Y635000D01*
X368300Y533400D02*
X330200Y533400D01*
X406400Y533400D02*
X406400Y533400D01*
X368300Y533400D01*
X317500Y469900D02*
X292100Y495300D01*
X304800Y533400D02*
X330200Y533400D01*
X304800Y533400D02*
X292100Y520700D01*
X292100Y495300D01*
X368300Y622300D02*
X355600Y635000D01*
X330200Y635000D01*
X317500Y635000D01*
X306070Y646430D01*
X306070Y674370D01*
X317500Y279400D02*
X330200Y279400D01*
X482600Y431800D02*
X482600Y711200D01*
X406400Y622300D02*
X406400Y618363D01*
X306070Y674370D02*
X368300Y736600D01*
X457200Y736600D01*
X406400Y622300D02*
X368300Y622300D01*
X457200Y736600D02*
X482600Y711200D01*
X482600Y431800D02*
X444500Y393700D01*
X355600Y304800D02*
X330200Y279400D01*
X381000Y393700D02*
X444500Y393700D01*
X355600Y368300D02*
X355600Y304800D01*
X355600Y368300D02*
X381000Y393700D01*
X406400Y444500D02*
X406400Y482600D01*
X406400Y673100D02*
X406400Y711200D01*
X139700Y876300D02*
X139700Y927100D01*
M02*
