M48
;GenerationSoftware,Autodesk,EAGLE,9.6.2*%
;CreationDate,2020-11-12T15:32:17Z*%
FMAT,2
ICI,OFF
METRIC,TZ,000.000
T4C0.800
T3C0.813
T2C1.016
T1C1.200
%
G90
M71
T1
X12730Y40720
X12730Y45720
X12730Y50720
X5230Y40720
X5230Y45720
X5230Y50720
X5230Y17860
X5230Y22860
X5230Y27860
X5230Y64850
X5230Y69850
X5230Y74850
T2
X25400Y92710
X22860Y92710
X20320Y92710
X38100Y44450
X40640Y44450
X40640Y71120
X38100Y71120
X35560Y92710
X33020Y92710
X13970Y92710
X11430Y92710
T3
X40640Y48260
X40640Y62230
X40640Y67310
X40640Y53340
X36830Y67310
X36830Y62230
X36830Y48260
X36830Y53340
X13970Y82550
X13970Y87630
X33020Y66040
X10160Y90170
X10160Y82550
X24130Y41910
X31750Y41910
X5080Y54610
X12700Y54610
X5080Y57150
X12700Y57150
X24130Y46990
X31750Y46990
X24130Y38100
X31750Y38100
X24130Y27940
X31750Y27940
X40640Y86360
X40640Y78740
X33020Y78740
X33020Y86360
X36830Y78740
X36830Y86360
X48260Y78740
X48260Y86360
X17780Y69850
X10160Y69850
X10160Y64770
X17780Y64770
X17780Y59690
X10160Y59690
X8890Y25400
X8890Y17780
X24130Y34290
X31750Y34290
X33020Y63500
X33020Y60960
X33020Y58420
X33020Y55880
X33020Y53340
X25400Y55880
X25400Y53340
X25400Y58420
X25400Y60960
X33020Y50800
X25400Y50800
X25400Y63500
X19177Y87630
X19177Y85090
X26797Y85090
X26797Y87630
X19177Y82550
X19177Y80010
X26797Y82550
X26797Y80010
X25400Y66040
T4
X21590Y58420
X28956Y75438
X29210Y69615
X44450Y86360
X44215Y50800
X10160Y33020
X10160Y27940
X12700Y33020
X12700Y27940
X16510Y46990
X21590Y46990
X16510Y25400
X16510Y33020
X22860Y90170
X21838Y77470
X29210Y90170
M30